<!DOCTYPE svg PUBLIC "-//W3C//DTD SVG 1.1//EN" "http://www.w3.org/Graphics/SVG/1.1/DTD/svg11.dtd">
<!-- Uploaded to: SVG Repo, www.svgrepo.com, Transformed by: SVG Repo Mixer Tools -->
<svg width="256px" height="256px" viewBox="-4.32 -4.32 32.64 32.64" version="1.1" xmlns="http://www.w3.org/2000/svg" xmlns:xlink="http://www.w3.org/1999/xlink" fill="#ffffff" stroke="#ffffff" transform="matrix(1, 0, 0, 1, 0, 0)rotate(0)">
<g id="SVGRepo_bgCarrier" stroke-width="0" transform="translate(0,0), scale(1)">
<path transform="translate(-4.32, -4.32), scale(1.02)" d="M16,29.85101506114006C18.88799403215971,29.84393339406968,22.02488515763376,30.716673791252614,24.460784683912774,29.1652379473737C26.89846364040147,27.612668776040515,27.569411550509372,24.458345740861247,28.665645036422568,21.784206277212306C29.719399266299856,19.21369022628683,30.93905001352168,16.652682179440013,30.72566122896255,13.882769550551844C30.50442033219339,11.01093186117394,29.345523408733268,8.247277244601223,27.455351576198566,6.073881355208993C25.567107144722765,3.9027016693737737,22.931636151632055,2.6054125544832036,20.1815991246902,1.7587812228921145C17.40409073033208,0.9036925068555061,14.36721668807609,0.16035952082882288,11.657346107775464,1.2102790563381447C9.011244238579707,2.2354918711538785,7.765389931267548,5.110080567614711,5.934915463601801,7.27855460274805C4.131927146850052,9.414467132306953,1.6719586888433975,11.130760119551473,0.9941230142847317,13.842480607095425C0.28849298620680086,16.6653939998008,1.04043771112862,19.634141317830828,2.1768753733124484,22.312809494221995C3.3352462468905233,25.043175882774598,4.908599624040239,27.786800389969812,7.512506987211259,29.206796918316122C10.05498342111241,30.593293135733525,13.10405322022869,29.858116229189413,16,29.85101506114006" fill="#165DFF" strokewidth="0"/>
</g>
<g id="SVGRepo_tracerCarrier" stroke-linecap="round" stroke-linejoin="round" stroke="#CCCCCC" stroke-width="0.384"/>
<g id="SVGRepo_iconCarrier"> <title>Abalone</title> <g id="Abalone" stroke-width="1.2" fill="none" fill-rule="evenodd" stroke-linecap="round"> <path d="M19.1029736,9.2393558 L19.5072416,9.38676028 C20.8012617,9.85731306 21.4688139,11.287782 20.9982611,12.5818022 C20.8874215,12.8866113 20.7181722,13.1668648 20.5,13.4068542 L20.3362673,13.5869602 C18.7878409,15.2902293 16.9883338,16.7469929 15,17.9068542 L12.0503871,19.6274618 C12.0192509,19.6456246 11.9807491,19.6456246 11.9496129,19.6274618 L9,17.9068542 C7.01166619,16.7469929 5.21215913,15.2902293 3.66373272,13.5869602 L3.5,13.4068542 C2.57378354,12.3880161 2.64886822,10.8112379 3.66770633,9.88502142 C3.90769576,9.6668492 4.18794928,9.49759997 4.49275841,9.38676028 L4.89759122,9.23813236 M8.69408049,15.2487992 L5.4973666,10.9866764 C4.50325405,9.66119298 4.7718832,7.78078893 6.0973666,6.78667638 C6.35532363,6.59320861 6.64278389,6.44259295 6.9486833,6.34062648 L7.5,6.15685425 C7.88099972,6.02985434 8.26603169,5.91941964 8.65404401,5.82555014 L8.83624687,5.78266122 C8.50982528,6.38522784 8.41465234,7.10813745 8.61429512,7.80688716 L10.4532794,14.2438294 M13.5462927,14.2436904 L15.3857049,7.80688716 C15.585236,7.10852825 15.4902811,6.38603646 15.1643006,5.78367235 C15.6137746,5.88537675 16.0595813,6.01004801 16.5,6.15685425 L17.0513167,6.34062648 C18.6231467,6.8645698 19.4726266,8.56352972 18.9486833,10.1353597 C18.8467168,10.4412591 18.6961012,10.7287193 18.5026334,10.9866764 L15.3053581,15.2483041 M10.4532794,14.2438294 L8.61429512,7.80688716 C8.25810919,6.5602364 8.84034262,5.23668294 10,4.65685425 C11.2590292,4.02733964 12.7409708,4.02733964 14,4.65685425 C15.1596574,5.23668294 15.7418908,6.5602364 15.3857049,7.80688716 L13.5462927,14.2436904" id="Combined-Shape" stroke="#ffffff"> </path> <path d="M16.9997745,16.5937589 L17,18.5 C17,19.3284271 16.3284271,20 15.5,20 L8.5,20 C7.67157288,20 7,19.3284271 7,18.5 L6.99904865,16.5928936 C7.64151174,17.0652931 8.30936513,17.5039839 9,17.9068542 L9,17.9068542 L11.9496129,19.6274618 C11.9807491,19.6456246 12.0192509,19.6456246 12.0503871,19.6274618 L12.0503871,19.6274618 L15,17.9068542 C15.6902132,17.5042299 16.3576727,17.0658287 16.9997745,16.5937589 Z" id="Rectangle-2" stroke="#ffffff"> </path> </g> </g>
</svg>